<svg xmlns="http://www.w3.org/2000/svg" width="24" height="24" viewBox="0 0 24 24" fill="none"><rect width="24" height="24" fill="none"/>
<path d="M12 22C6.5 22 2 17.5 2 12C2 6.5 6.5 2 12 2C17.5 2 22 6.5 22 12C22 17.5 17.5 22 12 22ZM12 20C16.4 20 20 16.4 20 12C20 7.6 16.4 4 12 4C7.6 4 4 7.6 4 12C4 16.4 7.6 20 12 20Z" fill="#191C22"/>
<path fill-rule="evenodd" clip-rule="evenodd" d="M9 11V7H13C14.6569 7 16 8.34315 16 10C16 11.6569 14.6569 13 13 13H11V14H15V16H11V17H9V16H8V14H9V13H8V11H9ZM11 11H13C13.5523 11 14 10.5523 14 10C14 9.44772 13.5523 9 13 9H11V11Z" fill="#191C22"/>
</svg>
