<svg xmlns="http://www.w3.org/2000/svg" width="24" height="24" viewBox="0 0 24 24" fill="none"><rect width="24" height="24" fill="none"/>
<path fill-rule="evenodd" clip-rule="evenodd" d="M3 1H21V20.618L18 22.118L16 21.118L14 22.118L12 21.118L10 22.118L8 21.118L6 22.118L3 20.618V1ZM5 3V19.382L6 19.882L8 18.882L10 19.882L12 18.882L14 19.882L16 18.882L18 19.882L19 19.382V3H5Z" fill="#191C22"/>
<path d="M13 6H7V8H13V6Z" fill="#191C22"/>
<path d="M13 10H7V12H13V10Z" fill="#191C22"/>
<path d="M11 14H7V16H11V14Z" fill="#191C22"/>
<path d="M17 6H15V8H17V6Z" fill="#191C22"/>
<path d="M17 10H15V12H17V10Z" fill="#191C22"/>
<path d="M17 14H15V16H17V14Z" fill="#191C22"/>
</svg>
