<svg xmlns="http://www.w3.org/2000/svg" width="24" height="24" viewBox="0 0 24 24" fill="none"><rect width="24" height="24" fill="none"/>
<g clip-path="url(#clip0_893_160)">
<path d="M4.20521 15.3207L9.15778 20.2733C7.57112 20.9244 5.79187 20.9244 4.20521 20.2733C3.55413 18.6866 3.55413 16.9074 4.20521 15.3207V15.3207ZM14.5976 18.3662L14.4081 21.3842L13.0455 22.7468L1.73175 11.4331L3.09434 10.0705L6.11228 9.88096L10.217 5.77621C12.6799 3.31335 16.5463 2.98808 19.7948 4.68373C21.4904 7.93217 21.1652 11.7986 18.7023 14.2615L14.5976 18.3662ZM13.0455 11.4331C13.4205 11.8081 13.9292 12.0188 14.4597 12.0188C14.9901 12.0188 15.4988 11.8081 15.8739 11.4331C16.249 11.058 16.4597 10.5493 16.4597 10.0188C16.4597 9.48841 16.249 8.97971 15.8739 8.60463C15.4988 8.22956 14.9901 8.01885 14.4597 8.01885C13.9292 8.01885 13.4205 8.22956 13.0455 8.60463C12.6704 8.97971 12.4597 9.48841 12.4597 10.0188C12.4597 10.5493 12.6704 11.058 13.0455 11.4331Z" fill="#191C22"/>
</g>
<defs>
<clipPath id="clip0_893_160">
<rect width="24" height="24" fill="white"/>
</clipPath>
</defs>
</svg>
