<svg xmlns="http://www.w3.org/2000/svg" width="24" height="24" viewBox="0 0 24 24" fill="none"><rect width="24" height="24" fill="none"/>
<path d="M21.9999 16.571C21.9995 17.9386 21.532 19.265 20.675 20.3307C19.8179 21.3963 18.6226 22.1373 17.2869 22.431L16.6489 20.517C17.2332 20.4208 17.7888 20.1962 18.2757 19.8593C18.7627 19.5225 19.1688 19.0818 19.4649 18.569H16.9999C16.4695 18.569 15.9608 18.3583 15.5857 17.9832C15.2107 17.6082 14.9999 17.0995 14.9999 16.569V12.569C14.9999 12.0386 15.2107 11.5299 15.5857 11.1548C15.9608 10.7797 16.4695 10.569 16.9999 10.569H19.9379C19.6939 8.63593 18.7529 6.8583 17.2914 5.56971C15.8299 4.28111 13.9484 3.57011 11.9999 3.57011C10.0515 3.57011 8.17001 4.28111 6.70851 5.56971C5.24702 6.8583 4.30597 8.63593 4.06194 10.569H6.99994C7.53037 10.569 8.03908 10.7797 8.41415 11.1548C8.78922 11.5299 8.99994 12.0386 8.99994 12.569V16.569C8.99994 17.0995 8.78922 17.6082 8.41415 17.9832C8.03908 18.3583 7.53037 18.569 6.99994 18.569H3.99994C3.46951 18.569 2.9608 18.3583 2.58573 17.9832C2.21065 17.6082 1.99994 17.0995 1.99994 16.569V11.569C1.99994 6.04603 6.47694 1.56903 11.9999 1.56903C17.5229 1.56903 21.9999 6.04603 21.9999 11.569V16.571ZM19.9999 16.569V12.569H16.9999V16.569H19.9999ZM3.99994 12.569V16.569H6.99994V12.569H3.99994Z" fill="#191C22"/>
</svg>
