<svg xmlns="http://www.w3.org/2000/svg" width="24" height="24" viewBox="0 0 24 24" fill="none"><rect width="24" height="24" fill="none"/>
<path fill-rule="evenodd" clip-rule="evenodd" d="M5.61358 8.98394L11.9522 10.1451L12.2585 8.47296L7.88602 7.67194L9.37857 3.48475L7.77726 2.91395L5.61358 8.98394Z" fill="#191C22"/>
<path fill-rule="evenodd" clip-rule="evenodd" d="M4.1499 12.3221L4.1499 13.1721C4.1499 17.5076 7.66447 21.0221 11.9999 21.0221C16.3353 21.0221 19.8499 17.5076 19.8499 13.1721C19.8499 8.83671 16.3353 5.32214 11.9999 5.32214C10.2857 5.32214 8.69763 5.87255 7.40597 6.80611L6.71707 7.30402L7.71289 8.68183L8.40179 8.18392C9.41334 7.45281 10.6551 7.02214 11.9999 7.02214C15.3965 7.02214 18.1499 9.77559 18.1499 13.1721C18.1499 16.5687 15.3965 19.3221 11.9999 19.3221C8.60335 19.3221 5.8499 16.5687 5.8499 13.1721L5.8499 12.3221L4.1499 12.3221Z" fill="#191C22"/>
</svg>
